<svg width="202" height="212" viewBox="0 0 202 212" fill="none" xmlns="http://www.w3.org/2000/svg">
<path d="M181.978 177.111C187.294 171.349 191.954 165.015 195.872 158.224" stroke="#2E353A" stroke-linecap="round" stroke-linejoin="round"/>
<path d="M113.309 210.624C137.743 208.644 160.71 198.16 178.212 180.995" stroke="#2E353A" stroke-linecap="round" stroke-linejoin="round"/>
<path d="M89.0986 209.834C92.4986 210.345 95.9222 210.684 99.3563 210.851" stroke="#2E353A" stroke-linecap="round" stroke-linejoin="round"/>
<path d="M57.0273 197.737C59.2032 198.867 61.4102 199.921 63.6482 200.899" stroke="#2E353A" stroke-linecap="round" stroke-linejoin="round"/>
<path d="M1 113.913C2.49521 130.397 7.85066 146.298 16.6328 160.327C25.415 174.357 37.3772 186.122 51.551 194.669" stroke="#2E353A" stroke-linecap="round" stroke-linejoin="round"/>
<path d="M163.902 19.7107C148.935 9.35939 131.543 3.06001 113.418 1.42583C95.2938 -0.208342 77.0549 2.87839 60.4775 10.3855" stroke="#2E353A" stroke-linecap="round" stroke-linejoin="round"/>
<path d="M201 63.4128C199.955 61.0391 198.824 58.7163 197.609 56.4443" stroke="#2E353A" stroke-linecap="round" stroke-linejoin="round"/>
<path d="M160.427 178.917C166.099 174.704 171.283 169.87 175.881 164.505" stroke="#2E353A" stroke-linecap="round" stroke-linejoin="round"/>
<path d="M93.9639 197.221C115.961 199.526 138.07 194.045 156.443 181.732" stroke="#2E353A" stroke-linecap="round" stroke-linejoin="round"/>
<path d="M72.6182 192.498C75.5231 193.498 78.4987 194.365 81.5449 195.1" stroke="#2E353A" stroke-linecap="round" stroke-linejoin="round"/>
<path d="M12.8018 130.079C13.4404 132.198 14.1497 134.29 14.9296 136.352" stroke="#2E353A" stroke-linecap="round" stroke-linejoin="round"/>
<path d="M31.628 41.0908C21.9263 52.4418 15.0336 65.9176 11.5078 80.4274C7.98194 94.9372 7.92207 110.073 11.333 124.611" stroke="#2E353A" stroke-linecap="round" stroke-linejoin="round"/>
<path d="M143.736 16.7445C128.838 9.84089 112.405 6.91505 96.0404 8.25219C79.6754 9.58933 63.936 15.1438 50.3564 24.3742" stroke="#2E353A" stroke-linecap="round" stroke-linejoin="round"/>
<path d="M192.073 68.1338C184.291 48.3744 170.13 31.7816 151.839 20.9907" stroke="#2E353A" stroke-linecap="round" stroke-linejoin="round"/>
<path d="M196.168 81.2576C195.642 78.9772 195.023 76.7307 194.328 74.5181" stroke="#2E353A" stroke-linecap="round" stroke-linejoin="round"/>
<path d="M192.268 103.816C192.268 102.697 193.268 101.561 193.226 100.425C193.184 99.2893 192.098 98.2466 192.022 97.1445C191.946 96.0425 192.87 94.8217 192.734 93.7535C192.599 92.6854 191.446 91.6681 191.285 90.566C191.124 89.464 191.946 88.1923 191.734 87.0988C191.522 86.0052 190.301 85.115 190.038 84.0299C189.776 82.9448 190.513 81.6138 190.233 80.5372C189.954 79.4606 188.648 78.6722 188.318 77.604C187.987 76.5358 188.614 75.154 188.25 74.1113C187.885 73.0686 186.554 72.3649 186.122 71.3307C185.69 70.2964 186.232 68.8638 185.791 67.8465C185.35 66.8292 183.943 66.2357 183.46 65.2354C182.977 64.2351 183.384 62.7685 182.867 61.7851C182.349 60.8017 180.908 60.327 180.323 59.3605C179.738 58.3941 180.069 56.9106 179.476 55.9696C178.882 55.0286 177.407 54.6555 176.78 53.74C176.152 52.8244 176.339 51.3154 175.678 50.4168C175.016 49.5182 173.524 49.2639 172.829 48.3907C172.134 47.5175 172.21 46.0085 171.481 45.1608C170.752 44.3131 169.243 44.1689 168.489 43.3551C167.734 42.5413 167.692 41.0238 166.903 40.2354C166.115 39.447 164.598 39.3877 163.784 38.6501C162.97 37.9126 162.817 36.3866 161.978 35.6576C161.139 34.9285 159.613 35.0048 158.748 34.3097C157.883 33.6145 157.612 32.1225 156.722 31.4612C155.832 30.8 154.323 30.9865 153.399 30.3592C152.475 29.7318 152.11 28.2568 151.161 27.6633C150.211 27.0699 148.736 27.3751 147.77 26.8156C146.803 26.2561 146.329 24.8234 145.345 24.2724C144.362 23.7213 142.895 24.1622 141.895 23.6789C140.895 23.1957 140.31 21.7969 139.284 21.3476C138.258 20.8983 136.842 21.4239 135.8 21.017C134.757 20.6101 134.104 19.2622 133.019 18.8892C131.934 18.5162 130.595 19.152 129.526 18.8214C128.458 18.4907 127.67 17.2022 126.593 16.9139C125.517 16.6257 124.194 17.3548 123.1 17.1004C122.007 16.8461 121.134 15.6254 120.032 15.4049C118.93 15.1845 117.675 16.0238 116.564 15.8543C115.454 15.6847 114.496 14.5318 113.385 14.4046C112.275 14.2774 111.071 15.2015 109.994 15.1167C108.918 15.0319 107.824 13.9553 106.705 13.9129C105.586 13.8705 104.467 14.8793 103.314 14.8793C102.161 14.8793 101.068 13.8705 99.9231 13.9129C98.7787 13.9553 97.7444 15.0404 96.6339 15.1167C95.5233 15.193 94.3195 14.269 93.2429 14.4046C92.1663 14.5402 91.1575 15.6932 90.0639 15.8543C88.9703 16.0153 87.6902 15.193 86.5966 15.4049C85.503 15.6169 84.6129 16.8376 83.5277 17.1004C82.4426 17.3632 81.1117 16.6257 80.035 16.9139C78.9584 17.2022 78.1615 18.4907 77.1018 18.8214C76.0422 19.152 74.6519 18.5246 73.6007 18.8892C72.5495 19.2537 71.9052 20.5847 70.8285 21.017C69.7519 21.4494 68.3616 20.9068 67.3443 21.3476C66.327 21.7885 65.7336 23.1957 64.7332 23.6789C63.7329 24.1622 62.2663 23.7552 61.2829 24.2724C60.2995 24.7895 59.8163 26.2307 58.8584 26.8156C57.9004 27.4005 56.3999 27.0784 55.4674 27.6633C54.5349 28.2483 54.1534 29.7234 53.2378 30.3507C52.3223 30.978 50.8133 30.7915 49.9147 31.4528C49.0161 32.114 48.7617 33.606 47.8886 34.3097C47.0154 35.0133 45.5064 34.92 44.6586 35.6491C43.8109 36.3782 43.6668 37.8871 42.8529 38.6416C42.0391 39.3961 40.5217 39.4385 39.7332 40.2269C38.9448 41.0153 38.8855 42.5328 38.148 43.3466C37.4104 44.1605 35.9099 44.2961 35.1809 45.1438C34.4518 45.9916 34.5281 47.5006 33.8329 48.3738C33.1378 49.2469 31.6458 49.5013 30.9845 50.3999C30.3233 51.2985 30.5098 52.799 29.8824 53.7146C29.2551 54.6301 27.78 55.0031 27.1866 55.9526C26.5932 56.9021 26.8984 58.3771 26.3389 59.3436C25.7794 60.31 24.3382 60.7847 23.7956 61.7766C23.2531 62.7685 23.6854 64.2181 23.2022 65.2184C22.719 66.2188 21.3202 66.8122 20.8709 67.8295C20.4216 68.8468 20.9472 70.271 20.5403 71.3137C20.1334 72.3565 18.777 73.0092 18.4125 74.0943C18.0479 75.1794 18.6668 76.5189 18.3446 77.5871C18.0225 78.6552 16.717 79.4436 16.4287 80.5202C16.1405 81.5969 16.8696 82.9278 16.6237 84.013C16.3779 85.0981 15.1486 85.9797 14.9282 87.0818C14.7078 88.1839 15.5556 89.447 15.386 90.5491C15.2165 91.6511 14.0635 92.6176 13.9364 93.7366C13.8092 94.8556 14.7332 96.0425 14.6485 97.1276C14.5637 98.2127 13.4786 99.2893 13.4447 100.408C13.4108 101.527 14.4026 102.655 14.4026 103.799C14.4026 104.944 13.4023 106.046 13.4447 107.19C13.4871 108.335 14.5722 109.369 14.6485 110.48C14.7248 111.59 13.8007 112.794 13.9364 113.871C14.072 114.947 15.2249 115.956 15.386 117.05C15.5471 118.143 14.7248 119.432 14.9282 120.525C15.1317 121.619 16.3694 122.501 16.6237 123.586C16.878 124.671 16.1405 126.01 16.4287 127.078C16.717 128.147 18.014 128.952 18.3446 130.012C18.6753 131.071 18.0479 132.462 18.4125 133.513C18.777 134.564 20.108 135.251 20.5403 136.293C20.9727 137.336 20.4301 138.752 20.8709 139.769C21.3118 140.786 22.719 141.38 23.2022 142.38C23.6854 143.381 23.27 144.847 23.7956 145.831C24.3212 146.814 25.7539 147.297 26.3389 148.264C26.9238 149.23 26.5932 150.714 27.1866 151.655C27.78 152.596 29.2551 152.969 29.8824 153.884C30.5098 154.8 30.3233 156.309 30.9845 157.207C31.6458 158.106 33.1378 158.36 33.8329 159.233C34.5281 160.107 34.4518 161.624 35.1809 162.463C35.9099 163.303 37.4189 163.455 38.1734 164.277C38.9279 165.1 38.9703 166.609 39.7587 167.397C40.5471 168.186 42.0645 168.245 42.8784 168.974C43.6922 169.703 43.8448 171.246 44.6841 171.967C45.5233 172.687 47.0408 172.619 47.914 173.314C48.7872 174.01 49.05 175.502 49.9401 176.163C50.8302 176.824 52.3392 176.638 53.2633 177.265C54.1873 177.892 54.5518 179.367 55.5013 179.961C56.4508 180.554 57.9258 180.249 58.8923 180.808C59.8587 181.368 60.3334 182.809 61.3168 183.352C62.3002 183.894 63.7583 183.462 64.7672 183.945C65.776 184.428 66.3524 185.827 67.3782 186.276C68.404 186.726 69.8197 186.2 70.8624 186.607C71.9052 187.014 72.5579 188.37 73.6431 188.735C74.7282 189.099 76.0676 188.481 77.1358 188.803C78.2039 189.125 78.9923 190.43 80.0689 190.719C81.1456 191.007 82.4681 190.278 83.5617 190.524C84.6553 190.769 85.5284 191.999 86.6305 192.219C87.7326 192.44 88.9872 191.592 90.0978 191.761C91.2083 191.931 92.1663 193.084 93.2768 193.211C94.3874 193.338 95.5912 192.414 96.6678 192.499C97.7444 192.584 98.838 193.669 99.9571 193.711C101.076 193.754 102.195 192.745 103.348 192.745C104.501 192.745 105.603 193.745 106.739 193.711C107.875 193.677 108.918 192.584 110.02 192.499C111.122 192.414 112.343 193.347 113.411 193.211C114.479 193.075 115.496 191.922 116.598 191.761C117.7 191.6 118.972 192.423 120.066 192.219C121.159 192.016 122.049 190.778 123.134 190.524C124.22 190.269 125.55 191.007 126.627 190.719C127.704 190.43 128.501 189.133 129.56 188.803C130.62 188.472 132.01 189.099 133.061 188.735C134.113 188.37 134.799 187.039 135.834 186.607C136.868 186.175 138.301 186.726 139.318 186.276C140.335 185.827 140.929 184.428 141.929 183.945C142.929 183.462 144.396 183.877 145.379 183.352C146.363 182.826 146.846 181.393 147.804 180.808C148.762 180.224 150.254 180.554 151.195 179.961C152.136 179.367 152.509 177.892 153.424 177.265C154.34 176.638 155.849 176.824 156.747 176.163C157.646 175.502 157.9 174.01 158.774 173.314C159.647 172.619 161.156 172.696 162.004 171.967C162.851 171.237 162.995 169.728 163.809 168.974C164.623 168.219 166.141 168.177 166.929 167.389C167.717 166.6 167.777 165.091 168.514 164.269C169.252 163.447 170.778 163.303 171.507 162.463C172.236 161.624 172.159 160.107 172.855 159.233C173.55 158.36 175.042 158.106 175.703 157.207C176.364 156.309 176.178 154.808 176.805 153.884C177.432 152.96 178.908 152.596 179.501 151.655C180.094 150.714 179.789 149.221 180.349 148.264C180.908 147.306 182.341 146.822 182.892 145.839C183.443 144.856 183.002 143.397 183.485 142.389C183.969 141.38 185.367 140.803 185.817 139.778C186.266 138.752 185.74 137.336 186.147 136.293C186.554 135.251 187.902 134.598 188.275 133.521C188.648 132.445 188.012 131.088 188.343 130.02C188.674 128.952 189.971 128.172 190.259 127.087C190.547 126.002 189.818 124.688 190.064 123.594C190.31 122.501 191.539 121.627 191.759 120.534C191.98 119.44 191.141 118.169 191.31 117.058C191.48 115.948 192.633 114.99 192.76 113.879C192.887 112.768 191.963 111.565 192.048 110.488C192.132 109.411 193.209 108.318 193.251 107.199C193.294 106.08 192.268 104.935 192.268 103.816Z" fill="#2CB1B5" stroke="#2E353A" stroke-width="2" stroke-linecap="round" stroke-linejoin="round"/>
<path d="M76.7207 19.168L78.289 23.5593" stroke="#2E353A" stroke-width="2" stroke-linecap="round" stroke-linejoin="round"/>
<path d="M70.752 21.5254L72.1677 24.9757" stroke="#2E353A" stroke-width="2" stroke-linecap="round" stroke-linejoin="round"/>
<path d="M179.986 59.5034C177.42 61.7029 174.503 63.454 171.355 64.6831" stroke="#2E353A" stroke-width="2" stroke-linecap="round" stroke-linejoin="round"/>
<path d="M183.12 65.311C181.952 66.0503 180.746 66.7294 179.509 67.3456" stroke="#2E353A" stroke-width="2" stroke-linecap="round" stroke-linejoin="round"/>
<path d="M52.8643 177.391C52.8643 177.391 56.6283 173.152 57.2556 170.016" stroke="#2E353A" stroke-width="2" stroke-linecap="round" stroke-linejoin="round"/>
<path d="M42.3438 168.727C42.3438 168.727 45.4889 164.811 46.1162 164.184" stroke="#2E353A" stroke-width="2" stroke-linecap="round" stroke-linejoin="round"/>
<path d="M123.016 190.074L121.762 183.174" stroke="#2E353A" stroke-width="2" stroke-linecap="round" stroke-linejoin="round"/>
<path d="M129.916 188.666L128.975 184.741" stroke="#2E353A" stroke-width="2" stroke-linecap="round" stroke-linejoin="round"/>
<path d="M158.638 173.128L153.306 167.16" stroke="#2E353A" stroke-width="2" stroke-linecap="round" stroke-linejoin="round"/>
<path d="M183.749 142.363L175.746 138.133" stroke="#2E353A" stroke-width="2" stroke-linecap="round" stroke-linejoin="round"/>
<path d="M15.0381 103.917L21.7861 104.07" stroke="#2E353A" stroke-width="2" stroke-linecap="round" stroke-linejoin="round"/>
<path d="M24.6104 104.231L27.9081 104.384" stroke="#2E353A" stroke-width="2" stroke-linecap="round" stroke-linejoin="round"/>
<path d="M23.668 142.837C24.4564 142.523 29.6022 141.141 29.6022 141.141" stroke="#2E353A" stroke-width="2" stroke-linecap="round" stroke-linejoin="round"/>
<path d="M123.068 17.2358C122.593 18.1853 121.644 23.6533 121.644 23.6533" stroke="#2E353A" stroke-width="2" stroke-linecap="round" stroke-linejoin="round"/>
<path d="M129.239 19.3711L128.527 22.9401" stroke="#2E353A" stroke-width="2" stroke-linecap="round" stroke-linejoin="round"/>
<path d="M153.704 31.0107L151.805 33.3844" stroke="#2E353A" stroke-width="2" stroke-linecap="round" stroke-linejoin="round"/>
<path d="M29.7217 53.8159L34.4691 56.427" stroke="#2E353A" stroke-width="2" stroke-linecap="round" stroke-linejoin="round"/>
<path d="M37.3262 57.8516L41.1241 59.9879" stroke="#2E353A" stroke-width="2" stroke-linecap="round" stroke-linejoin="round"/>
<path d="M121.014 94.6994C121.014 94.6994 120.037 93.1851 115.1 90.0708C110.163 86.9565 97.3854 83.9965 92.3511 81.2765C87.3167 78.4707 81.7053 73.1793 79.7453 70.6364C77.7853 68.0936 78.0881 66.1736 76.511 66.0193C74.9339 65.865 73.3567 66.5907 72.2596 69.8936C71.1624 73.1964 72.5053 81.4708 73.4024 84.0136C74.2996 86.5565 76.9339 88.1679 78.6081 88.8422C80.2824 89.5165 84.0253 91.2936 84.0196 92.8879C84.0139 94.4822 83.8139 94.7965 83.1225 94.9165C82.431 95.0365 67.231 97.2879 64.8881 97.968C62.5452 98.648 61.5338 102.917 62.2024 106.282C62.871 109.648 65.5224 110.705 64.7224 113.094C63.9224 115.482 62.5452 118.282 63.9052 121.454C65.2652 124.625 67.8195 124.134 66.8253 126.597C65.831 129.059 65.8195 131.939 67.0881 133.791C68.3567 135.642 70.031 136.842 70.0195 139.088C70.0081 141.334 73.9281 146.277 76.391 146.98C77.6081 147.345 88.6596 148.557 99.4197 148.665C110.174 148.94 120.637 148.094 120.62 148.094C120.749 130.284 120.881 112.486 121.014 94.6994Z" fill="white" stroke="#2E353A" stroke-width="3" stroke-linecap="round" stroke-linejoin="round"/>
<path d="M142.487 146.425C136.087 147.392 129.664 148.105 123.219 148.562C122.802 148.58 122.386 148.511 121.998 148.358C121.609 148.205 121.258 147.973 120.965 147.675C120.673 147.378 120.446 147.022 120.299 146.632C120.153 146.241 120.091 145.824 120.116 145.408C120.181 129.328 120.245 113.255 120.31 97.1903C120.294 96.768 120.363 96.3468 120.513 95.9516C120.663 95.5565 120.89 95.1955 121.182 94.8901C121.475 94.5847 121.825 94.3411 122.213 94.1738C122.601 94.0064 123.019 93.9188 123.442 93.916C129.887 94.0989 136.31 94.3598 142.71 94.6989C143.544 94.758 144.325 95.13 144.896 95.7403C145.467 96.3507 145.786 97.1544 145.79 97.9903C145.722 112.92 145.655 127.861 145.59 142.813C145.565 143.68 145.243 144.511 144.678 145.168C144.113 145.826 143.34 146.269 142.487 146.425Z" fill="#3D3D3D" stroke="#2E353A" stroke-width="3" stroke-linecap="round" stroke-linejoin="round"/>
<path d="M139.106 149.272C139.129 148.807 139.054 148.341 138.886 147.907C138.718 147.472 138.461 147.077 138.131 146.748C137.801 146.419 137.406 146.162 136.971 145.996C136.535 145.829 136.07 145.755 135.605 145.779C134.624 145.885 133.718 146.353 133.064 147.091C132.41 147.83 132.055 148.786 132.07 149.772C132.041 150.24 132.112 150.709 132.278 151.147C132.444 151.586 132.7 151.984 133.031 152.317C133.362 152.649 133.759 152.907 134.197 153.075C134.634 153.243 135.103 153.316 135.571 153.29C136.55 153.17 137.451 152.694 138.102 151.954C138.754 151.213 139.111 150.259 139.106 149.272Z" fill="white" stroke="#2E353A" stroke-width="3" stroke-linecap="round" stroke-linejoin="round"/>
<path d="M128.18 69.169C137.581 69.169 145.203 61.5476 145.203 52.1462C145.203 42.7449 137.581 35.1235 128.18 35.1235C118.779 35.1235 111.157 42.7449 111.157 52.1462C111.157 61.5476 118.779 69.169 128.18 69.169Z" fill="white"/>
<path d="M156.871 77.3459C159.34 74.8762 159.34 70.8719 156.871 68.4022C154.401 65.9324 150.397 65.9324 147.927 68.4022C145.457 70.8719 145.457 74.8762 147.927 77.3459C150.397 79.8156 154.401 79.8156 156.871 77.3459Z" fill="white"/>
<path opacity="0.2" d="M96.9824 189.811C98.0505 189.887 99.0678 190.938 100.153 190.98C101.238 191.023 102.323 190.048 103.4 190.048C104.476 190.048 105.579 191.014 106.655 190.98C107.732 190.947 108.758 189.887 109.826 189.811C110.894 189.734 112.064 190.658 113.132 190.497C114.2 190.336 115.15 189.26 116.209 189.098C117.269 188.937 118.507 189.734 119.6 189.539C120.694 189.344 121.516 188.149 122.559 187.912C123.602 187.674 124.899 188.378 125.95 188.098C127.001 187.818 127.756 186.572 128.781 186.25C129.807 185.928 131.146 186.538 132.172 186.182C133.198 185.826 133.868 184.487 134.86 184.131C135.851 183.775 137.242 184.241 138.251 183.809C139.259 183.376 139.802 182.028 140.794 181.554C141.786 181.079 143.176 181.486 144.125 180.986C145.075 180.485 145.541 179.087 146.474 178.553C147.406 178.018 148.847 178.298 149.754 177.705C150.662 177.111 151.026 175.704 151.916 175.102C152.806 174.5 154.256 174.678 155.121 174.034C155.985 173.39 156.24 171.949 157.079 171.279C157.918 170.609 159.385 170.685 160.199 169.982C161.013 169.278 161.157 167.82 161.945 167.091C162.733 166.362 164.2 166.32 164.963 165.557C165.726 164.794 165.76 163.335 166.489 162.547C167.218 161.759 168.685 161.615 169.388 160.792C170.092 159.97 170.016 158.52 170.685 157.673C171.355 156.825 172.796 156.579 173.44 155.714C174.085 154.85 173.898 153.4 174.509 152.51C175.119 151.62 176.535 151.264 177.103 150.348C177.671 149.432 177.391 148 177.951 147.067C178.51 146.135 179.883 145.677 180.384 144.728C180.884 143.778 180.494 142.362 180.96 141.396C181.426 140.429 182.783 139.861 183.215 138.853C183.647 137.844 183.139 136.496 183.537 135.462C183.936 134.427 185.233 133.766 185.589 132.774C185.945 131.782 185.334 130.426 185.656 129.383C185.979 128.341 187.225 127.595 187.505 126.552C187.784 125.509 187.072 124.229 187.318 123.161C187.564 122.093 188.742 121.262 188.946 120.202C189.149 119.143 188.344 117.922 188.505 116.811C188.666 115.701 189.785 114.802 189.904 113.734C190.022 112.666 189.132 111.504 189.217 110.419C189.302 109.334 190.345 108.334 190.378 107.249C190.412 106.164 189.446 105.078 189.446 104.002C189.446 102.925 190.421 101.823 190.378 100.746C190.336 99.6698 189.293 98.6441 189.217 97.5759C189.141 96.5078 190.022 95.3379 189.904 94.2697C189.785 93.2016 188.658 92.2521 188.505 91.1924C188.352 90.1327 189.141 88.895 188.946 87.8014C188.751 86.7078 187.555 85.8855 187.318 84.8428C187.27 84.6116 187.255 84.3745 187.276 84.1392C127.594 135.004 53.332 131.079 19.5154 125.814C19.5007 126.034 19.5207 126.254 19.5748 126.467C19.8545 127.51 21.1007 128.273 21.4229 129.299C21.745 130.324 21.1346 131.664 21.4907 132.69C21.8467 133.715 23.1862 134.385 23.5422 135.368C23.8983 136.352 23.432 137.751 23.8644 138.759C24.2967 139.768 25.6446 140.319 26.1194 141.303C26.5941 142.286 26.1872 143.685 26.6874 144.634C27.1875 145.584 28.5863 146.05 29.1204 146.983C29.6545 147.915 29.3747 149.348 29.9681 150.255C30.5616 151.162 31.9688 151.526 32.5707 152.417C33.1726 153.307 32.9946 154.756 33.6389 155.629C34.2832 156.503 35.7243 156.74 36.394 157.588C37.0638 158.436 36.9875 159.885 37.6911 160.707C38.3947 161.53 39.8528 161.665 40.5819 162.454C41.311 163.242 41.3534 164.709 42.1163 165.472C42.8793 166.235 44.3374 166.26 45.1258 166.998C45.9142 167.735 46.0583 169.185 46.8806 169.889C47.703 170.592 49.1526 170.516 50.0004 171.186C50.8481 171.855 51.0939 173.305 51.9586 173.941C52.8233 174.577 54.273 174.399 55.1631 175.009C56.0533 175.619 56.4093 177.035 57.3249 177.612C58.2404 178.188 59.6731 177.891 60.6056 178.459C61.5382 179.027 61.9959 180.384 62.9454 180.892C63.8949 181.401 65.3106 180.994 66.2771 181.469C67.2435 181.944 67.8115 183.283 68.8203 183.715C69.8291 184.148 71.177 183.639 72.2113 184.037C73.2455 184.436 73.9068 185.733 74.8986 186.089C75.8905 186.445 77.2469 185.843 78.2896 186.157C79.3323 186.47 80.0783 187.725 81.1211 188.005C82.1638 188.285 83.4439 187.581 84.5121 187.818C85.5802 188.056 86.4195 189.243 87.4792 189.446C88.5388 189.65 89.7596 188.844 90.8278 189.005C91.8959 189.166 92.8369 190.285 93.9051 190.404C94.9732 190.523 95.8973 189.734 96.9824 189.811Z" fill="black"/>
</svg>
