<svg width="16" height="18" viewBox="0 0 16 18" fill="none" xmlns="http://www.w3.org/2000/svg">
<path id="Vector" opacity="0.6" d="M11.3746 0.78125C12.6992 0.78125 13.8541 1.68232 14.1761 2.96719L14.5185 4.33599H15.3298C15.6673 4.33599 15.9461 4.58674 15.9903 4.91207L15.9964 5.00251C15.9964 5.33994 15.7456 5.6188 15.4203 5.66294L15.3298 5.66902H14.8535L15.0384 6.40352C15.6149 6.75436 16 7.38863 16 8.11291V15.6639C16 16.5228 15.3037 17.2191 14.4448 17.2191H13.1081C12.2492 17.2191 11.5529 16.5228 11.5529 15.6639L11.552 14.5559H4.44699L4.44706 15.6639C4.44706 16.5228 3.75077 17.2191 2.89186 17.2191H1.5552C0.696286 17.2191 0 16.5228 0 15.6639V8.11291C0 7.38881 0.384943 6.75454 0.961354 6.40367L1.14552 5.66902H0.666515C0.329081 5.66902 0.0502197 5.41828 0.00608751 5.09295L0 5.00251C0 4.66508 0.250743 4.38621 0.576073 4.34208L0.666515 4.33599H1.47789L1.8209 2.96898C2.14234 1.68324 3.29758 0.78125 4.62289 0.78125H11.3746ZM3.11396 14.5559H1.33214L1.33303 15.6639C1.33303 15.7865 1.4325 15.8861 1.5552 15.8861H2.89186C3.01456 15.8861 3.11403 15.7865 3.11403 15.6639L3.11396 14.5559ZM14.6669 14.5559H12.8851L12.886 15.6639C12.886 15.7865 12.9854 15.8861 13.1081 15.8861H14.4448C14.5675 15.8861 14.667 15.7865 14.667 15.6639L14.6669 14.5559ZM14.0005 7.4464H1.99954C1.63144 7.4464 1.33303 7.74482 1.33303 8.11291V13.2229H14.667V8.11291C14.667 7.74482 14.3686 7.4464 14.0005 7.4464ZM6.44209 10.5568H9.554C9.92218 10.5568 10.2205 10.8552 10.2205 11.2233C10.2205 11.5607 9.96982 11.8396 9.64447 11.8838L9.554 11.8898H6.44209C6.07398 11.8898 5.77556 11.5914 5.77556 11.2233C5.77556 10.8859 6.02632 10.607 6.35162 10.5628L6.44209 10.5568ZM12.4416 8.77943C12.9323 8.77943 13.3302 9.17729 13.3302 9.66811C13.3302 10.1588 12.9323 10.5567 12.4416 10.5567C11.9508 10.5567 11.5529 10.1588 11.5529 9.66811C11.5529 9.17729 11.9508 8.77943 12.4416 8.77943ZM3.55472 8.77943C4.04552 8.77943 4.44339 9.17729 4.44339 9.66811C4.44339 10.1588 4.04552 10.5567 3.55472 10.5567C3.06392 10.5567 2.66606 10.1588 2.66606 9.66811C2.66606 9.17729 3.06392 8.77943 3.55472 8.77943ZM11.3746 2.11428H4.62289C3.90926 2.11428 3.28721 2.59996 3.11413 3.29229L2.40886 6.11337H13.5906L12.8831 3.29133C12.7097 2.59947 12.0878 2.11428 11.3746 2.11428Z" fill="#1B1B1B"/>
</svg>
