<svg width="18" height="16" viewBox="0 0 18 16" fill="none" xmlns="http://www.w3.org/2000/svg">
<g id="Group 143726267" opacity="0.3">
<path id="Vector" d="M6.97461 7.99961C6.97461 6.88127 7.88127 5.97461 8.99961 5.97461C10.1179 5.97461 11.0246 6.88127 11.0246 7.99961C11.0246 9.11795 10.1179 10.0246 8.99961 10.0246C7.88127 10.0246 6.97461 9.11795 6.97461 7.99961Z" fill="#1B1B1B"/>
<path id="Vector_2" fill-rule="evenodd" clip-rule="evenodd" d="M0 7.9998C0 9.47527 0.382464 9.97216 1.1474 10.9659C2.67476 12.9502 5.2363 15.1998 9 15.1998C12.7637 15.1998 15.3252 12.9502 16.8526 10.9659C17.6175 9.97216 18 9.47527 18 7.9998C18 6.52434 17.6175 6.02748 16.8526 5.0337C15.3252 3.04941 12.7637 0.799805 9 0.799805C5.2363 0.799805 2.67476 3.04941 1.1474 5.0337C0.382464 6.02748 0 6.52434 0 7.9998ZM9 4.6248C7.13604 4.6248 5.625 6.13584 5.625 7.9998C5.625 9.8638 7.13604 11.3748 9 11.3748C10.864 11.3748 12.375 9.8638 12.375 7.9998C12.375 6.13584 10.864 4.6248 9 4.6248Z" fill="#1B1B1B"/>
</g>
</svg>
