<svg width="17" height="16" viewBox="0 0 17 16" fill="none" xmlns="http://www.w3.org/2000/svg">
<g id="Group 143726274" opacity="0.6">
<path id="Union" d="M1.32698 2.95541L1.99524 3.2959L1.32698 2.95541ZM1.7682 14.5492L2.29853 15.0795L2.29853 15.0795L1.7682 14.5492ZM14.362 11.9904L14.0215 11.3221H14.0215L14.362 11.9904ZM15.673 10.6794L15.0048 10.3389V10.3389L15.673 10.6794ZM15.673 2.95541L15.0048 3.2959V3.2959L15.673 2.95541ZM14.362 1.64436L14.7025 0.976109V0.976108L14.362 1.64436ZM2.63803 1.64436L2.97852 2.31262L2.63803 1.64436ZM3.70711 12.6103L4.23744 13.1406L3.70711 12.6103ZM1.75 6.11738C1.75 5.26493 1.75058 4.67069 1.78838 4.20806C1.82546 3.75419 1.8946 3.49342 1.99524 3.2959L0.658726 2.61492C0.432385 3.05914 0.338025 3.53928 0.293363 4.08591C0.249417 4.6238 0.25 5.28968 0.25 6.11738H1.75ZM1.75 7.31738V6.11738H0.25V7.31738H1.75ZM0.25 7.31738V12.3174H1.75V7.31738H0.25ZM0.25 12.3174V14.231H1.75V12.3174H0.25ZM0.25 14.231C0.25 15.3001 1.54257 15.8355 2.29853 15.0795L1.23787 14.0189C1.42686 13.8299 1.75 13.9637 1.75 14.231H0.25ZM2.29853 15.0795L4.23744 13.1406L3.17678 12.0799L1.23787 14.0189L2.29853 15.0795ZM11.2 11.5674H4.41421V13.0674H11.2V11.5674ZM14.0215 11.3221C13.824 11.4228 13.5632 11.4919 13.1093 11.529C12.6467 11.5668 12.0525 11.5674 11.2 11.5674V13.0674C12.0277 13.0674 12.6936 13.068 13.2315 13.024C13.7781 12.9794 14.2582 12.885 14.7025 12.6587L14.0215 11.3221ZM15.0048 10.3389C14.7891 10.7622 14.4448 11.1064 14.0215 11.3221L14.7025 12.6587C15.4081 12.2991 15.9817 11.7255 16.3413 11.0198L15.0048 10.3389ZM15.25 7.51738C15.25 8.36984 15.2494 8.96407 15.2116 9.4267C15.1745 9.88058 15.1054 10.1413 15.0048 10.3389L16.3413 11.0198C16.5676 10.5756 16.662 10.0955 16.7066 9.54885C16.7506 9.01097 16.75 8.34509 16.75 7.51738H15.25ZM15.25 6.11738V7.51738H16.75V6.11738H15.25ZM15.0048 3.2959C15.1054 3.49342 15.1745 3.75419 15.2116 4.20806C15.2494 4.67069 15.25 5.26493 15.25 6.11738H16.75C16.75 5.28968 16.7506 4.6238 16.7066 4.08591C16.662 3.53928 16.5676 3.05914 16.3413 2.61492L15.0048 3.2959ZM14.0215 2.31262C14.4448 2.52833 14.7891 2.87254 15.0048 3.2959L16.3413 2.61492C15.9817 1.90931 15.4081 1.33563 14.7025 0.976109L14.0215 2.31262ZM11.2 2.06738C12.0525 2.06738 12.6467 2.06797 13.1093 2.10576C13.5632 2.14285 13.824 2.21198 14.0215 2.31262L14.7025 0.976108C14.2582 0.749768 13.7781 0.655408 13.2315 0.610746C12.6936 0.5668 12.0277 0.567383 11.2 0.567383V2.06738ZM5.8 2.06738H11.2V0.567383H5.8V2.06738ZM2.97852 2.31262C3.17604 2.21198 3.4368 2.14285 3.89068 2.10576C4.35331 2.06797 4.94755 2.06738 5.8 2.06738V0.567383C4.9723 0.567383 4.30641 0.5668 3.76853 0.610746C3.22189 0.655408 2.74175 0.749768 2.29754 0.976108L2.97852 2.31262ZM1.99524 3.2959C2.21095 2.87254 2.55516 2.52833 2.97852 2.31262L2.29754 0.976108C1.59193 1.33563 1.01825 1.90931 0.658726 2.61492L1.99524 3.2959ZM4.23744 13.1406C4.28432 13.0937 4.34791 13.0674 4.41421 13.0674V11.5674C3.95008 11.5674 3.50497 11.7518 3.17678 12.0799L4.23744 13.1406Z" fill="#1B1B1B"/>
<path id="Vector 7" d="M5 5.31738L12 5.31738" stroke="#1B1B1B" stroke-width="1.5" stroke-linecap="round" stroke-linejoin="round"/>
<path id="Vector 9" d="M5 8.31738L10 8.31738" stroke="#1B1B1B" stroke-width="1.5" stroke-linecap="round" stroke-linejoin="round"/>
</g>
</svg>
