<svg width="18" height="16" viewBox="0 0 18 16" fill="none" xmlns="http://www.w3.org/2000/svg">
<g id="Group 1000003136" opacity="0.6">
<g id="Ticket Star 1">
<g id="Vector">
<path d="M1 5.15517C1 3.19149 2.59188 1.59961 4.55556 1.59961H13.4444C15.4081 1.59961 17 3.19149 17 5.15517C17 5.5898 16.7507 5.98592 16.3589 6.174L15.969 6.36115C14.5944 7.02097 14.5944 8.97825 15.969 9.63807L16.3589 9.82522C16.7507 10.0133 17 10.4094 17 10.8441C17 12.8077 15.4081 14.3996 13.4444 14.3996H4.55555C2.59188 14.3996 1 12.8077 1 10.8441C1 10.4094 1.24925 10.0133 1.64108 9.82522L2.03098 9.63807C3.40561 8.97825 3.40561 7.02097 2.03098 6.36115L1.64108 6.174C1.24925 5.98592 1 5.5898 1 5.15517Z" stroke="#1B1B1B" stroke-width="1.5"/>
<path d="M8.21401 6.1895C8.46141 5.40298 9.53859 5.40298 9.78599 6.1895C9.89663 6.54125 10.2139 6.7794 10.572 6.7794C11.3726 6.7794 11.7054 7.83766 11.0577 8.32376C10.7681 8.54115 10.6469 8.92648 10.7575 9.27823C11.0049 10.0648 10.1335 10.7188 9.48577 10.2327C9.19611 10.0153 8.80389 10.0153 8.51423 10.2327C7.86654 10.7188 6.99508 10.0648 7.24248 9.27823C7.35311 8.92648 7.23191 8.54115 6.94225 8.32376C6.29456 7.83766 6.62743 6.7794 7.42802 6.7794C7.78606 6.7794 8.10337 6.54125 8.21401 6.1895Z" stroke="#1B1B1B" stroke-width="1.5"/>
</g>
</g>
</g>
</svg>
