<svg width="14" height="14" viewBox="0 0 14 14" fill="none" xmlns="http://www.w3.org/2000/svg">
<path id="Vector" opacity="0.6" d="M12.8333 2.33333H9.91667V1.16667C9.91667 0.525 9.39167 0 8.75 0H5.25C4.60833 0 4.08333 0.525 4.08333 1.16667V2.33333H1.16667C0.525 2.33333 0 2.85833 0 3.5V12.8333C0 13.475 0.525 14 1.16667 14H12.8333C13.475 14 14 13.475 14 12.8333V3.5C14 2.85833 13.475 2.33333 12.8333 2.33333ZM5.25 1.16667H8.75V2.33333H5.25V1.16667ZM7.58333 3.5V7H6.41667V3.5H7.58333ZM12.8333 12.8333H1.16667V11.0833H12.8333V12.8333ZM12.8333 9.91667H1.16667V3.5H5.25V7C5.25 7.64167 5.775 8.16667 6.41667 8.16667H7.58333C8.225 8.16667 8.75 7.64167 8.75 7V3.5H12.8333V9.91667Z" fill="#1B1B1B"/>
</svg>
