<svg width="32" height="28" viewBox="0 0 32 28" fill="none" xmlns="http://www.w3.org/2000/svg">
<g id="Group 1000003143">
<path id="Vector" d="M7.06661 9.6941C6.94439 10.0203 6.5802 10.1846 6.25399 10.0624C5.92862 9.93937 5.76345 9.576 5.88567 9.2498C6.86015 6.66166 8.6076 4.45174 10.8472 2.90166C13.0258 1.39453 15.6668 0.511719 18.5118 0.511719C22.2362 0.511719 25.6081 2.02133 28.0492 4.46248C30.4904 6.90363 32 10.2755 32 14C32 17.7244 30.4904 21.0963 28.0492 23.5375C25.6081 25.9786 22.2362 27.4882 18.5118 27.4882C15.6668 27.4882 13.0258 26.6046 10.8472 25.0983C8.6076 23.5482 6.85933 21.3383 5.88567 18.7501C5.76345 18.4247 5.92779 18.0606 6.25399 17.9375C6.5802 17.8153 6.94356 17.9796 7.06661 18.3058C7.95024 20.6528 9.53418 22.6571 11.5641 24.061C13.5353 25.4253 15.9294 26.2239 18.5126 26.2239C21.8877 26.2239 24.9441 24.8555 27.1565 22.6439C29.3681 20.4323 30.7365 17.3759 30.7365 14C30.7365 10.6248 29.3681 7.56842 27.1565 5.35602C24.9441 3.14446 21.8886 1.77606 18.5126 1.77606C15.9294 1.77606 13.5353 2.57464 11.5641 3.9389C9.53418 5.34281 7.95024 7.3471 7.06661 9.6941ZM9.22945 10.055C9.00317 9.79072 9.03373 9.39267 9.298 9.16639C9.56226 8.94012 9.96031 8.97067 10.1874 9.23576L13.9325 13.5895C14.139 13.8315 14.1316 14.1841 13.9268 14.4154L10.1874 18.7633C9.96114 19.0276 9.56309 19.059 9.298 18.8327C9.03373 18.6064 9.00235 18.2084 9.22945 17.9433L12.0777 14.6317H0.631758C0.283259 14.6317 0 14.3485 0 13.9991C0 13.6498 0.283259 13.3666 0.631758 13.3666H12.0777L9.22945 10.0542V10.055Z" fill="#1B1B1B"/>
<path id="Vector_2" d="M25.3743 19.1836C25.3743 16.6063 23.285 14.5169 20.7077 14.5169C18.1304 14.5169 16.041 16.6063 16.041 19.1836M20.7077 12.5169C19.2349 12.5169 18.041 11.323 18.041 9.85026C18.041 8.3775 19.2349 7.18359 20.7077 7.18359C22.1804 7.18359 23.3743 8.3775 23.3743 9.85026C23.3743 11.323 22.1804 12.5169 20.7077 12.5169Z" stroke="#1B1B1B" stroke-width="1.33333" stroke-linecap="round" stroke-linejoin="round"/>
</g>
</svg>
