<svg width="26" height="40" viewBox="0 0 26 40" fill="none" xmlns="http://www.w3.org/2000/svg">
<path d="M24.1444 0H1.85586C0.973408 0 0.255859 0.717549 0.255859 1.6V36.8579C0.255859 37.7404 0.973408 38.4579 1.85586 38.4579H2.25697V39.5543C2.25697 39.7994 2.45753 40 2.70266 40H5.47034C5.71547 40 5.91603 39.7994 5.91603 39.5543V38.4579H20.0843V39.5543C20.0843 39.7994 20.2848 40 20.53 40H23.2976C23.5428 40 23.7433 39.7994 23.7433 39.5543V38.4579H24.1444C25.0269 38.4579 25.7444 37.7404 25.7444 36.8579V1.6C25.7444 0.717549 25.0269 0 24.1444 0ZM24.8531 1.6V23.6969H13.4436V0.891365H24.1444C24.5366 0.891365 24.8531 1.21226 24.8531 1.6ZM1.14277 1.6C1.14277 1.2078 1.4592 0.891365 1.8514 0.891365H12.5522V23.6969H1.14277V1.6ZM5.02466 39.1131H3.14834V38.4624H5.02466V39.1131ZM22.852 39.1131H20.9756V38.4624H22.852V39.1131ZM24.8531 36.8579C24.8531 37.2501 24.5366 37.5666 24.1444 37.5666H23.2976H20.53H5.47034H2.70266H1.85586C1.46366 37.5666 1.14722 37.2501 1.14722 36.8579V24.5928H24.8575V36.8579H24.8531Z" fill="#2CB1B5"/>
<path d="M6.59375 26.7053C6.59375 26.9504 6.79431 27.1509 7.03943 27.1509H18.9614C19.2066 27.1509 19.4071 26.9504 19.4071 26.7053C19.4071 26.4601 19.2066 26.2596 18.9614 26.2596H7.03943C6.79431 26.2596 6.59375 26.4601 6.59375 26.7053Z" fill="#2CB1B5"/>
<path d="M14.7797 16.2672C15.0248 16.2672 15.2253 16.0666 15.2253 15.8215V8.77082C15.2253 8.52569 15.0248 8.32513 14.7797 8.32513C14.5345 8.32513 14.334 8.52569 14.334 8.77082V15.8215C14.334 16.0666 14.5345 16.2672 14.7797 16.2672Z" fill="#2CB1B5"/>
<path d="M11.2152 8.32513C10.9701 8.32513 10.7695 8.52569 10.7695 8.77082V15.8215C10.7695 16.0666 10.9701 16.2672 11.2152 16.2672C11.4603 16.2672 11.6609 16.0666 11.6609 15.8215V8.77082C11.6609 8.52569 11.4648 8.32513 11.2152 8.32513Z" fill="#2CB1B5"/>
<path d="M18.3594 15.5451H21.1182C21.9294 15.5451 22.589 14.8855 22.589 14.0743V5.24089C22.589 4.42975 21.9294 3.77014 21.1182 3.77014H18.3594C17.5483 3.77014 16.8887 4.42975 16.8887 5.24089V14.0743C16.8842 14.8855 17.5483 15.5451 18.3594 15.5451ZM17.7756 5.24089C17.7756 4.92 18.0341 4.66151 18.355 4.66151H21.1182C21.4391 4.66151 21.6976 4.92 21.6976 5.24089V14.0743C21.6976 14.3952 21.4391 14.6537 21.1182 14.6537H18.3594C18.0386 14.6537 17.7801 14.3952 17.7801 14.0743V5.24089H17.7756Z" fill="#2CB1B5"/>
</svg>
