<svg width="16" height="18" viewBox="0 0 16 18" fill="none" xmlns="http://www.w3.org/2000/svg">
<path id="Subtract" d="M8.39804 16.8528L8.74336 17.5186H8.74336L8.39804 16.8528ZM7.60196 16.8528L7.25664 17.5186H7.25664L7.60196 16.8528ZM14.25 8.04883C14.25 10.2852 13.111 12.115 11.7225 13.5155C10.3347 14.9152 8.76052 15.8199 8.05271 16.187L8.74336 17.5186C9.51848 17.1165 11.2453 16.1274 12.7877 14.5715C14.3295 13.0164 15.75 10.8288 15.75 8.04883H14.25ZM8 1.79883C11.4518 1.79883 14.25 4.59705 14.25 8.04883H15.75C15.75 3.76862 12.2802 0.298828 8 0.298828V1.79883ZM1.75 8.04883C1.75 4.59705 4.54822 1.79883 8 1.79883V0.298828C3.71979 0.298828 0.25 3.76862 0.25 8.04883H1.75ZM7.94729 16.187C7.23948 15.8199 5.66527 14.9152 4.27749 13.5155C2.88902 12.115 1.75 10.2852 1.75 8.04883H0.25C0.25 10.8288 1.67049 13.0164 3.21227 14.5715C4.75474 16.1274 6.48152 17.1165 7.25664 17.5186L7.94729 16.187ZM8.05271 16.187C8.01637 16.2059 7.98363 16.2059 7.94729 16.187L7.25664 17.5186C7.72602 17.762 8.27398 17.762 8.74336 17.5186L8.05271 16.187ZM10.25 8.0489C10.25 9.29154 9.24265 10.2989 8.00001 10.2989V11.7989C10.0711 11.7989 11.75 10.12 11.75 8.0489H10.25ZM8.00001 5.7989C9.24265 5.7989 10.25 6.80626 10.25 8.0489H11.75C11.75 5.97784 10.0711 4.2989 8.00001 4.2989V5.7989ZM5.75001 8.0489C5.75001 6.80626 6.75737 5.7989 8.00001 5.7989V4.2989C5.92894 4.2989 4.25001 5.97784 4.25001 8.0489H5.75001ZM8.00001 10.2989C6.75737 10.2989 5.75001 9.29154 5.75001 8.0489H4.25001C4.25001 10.12 5.92894 11.7989 8.00001 11.7989V10.2989Z" fill="#2CB1B5"/>
</svg>
