<svg width="42" height="42" viewBox="0 0 42 42" fill="none" xmlns="http://www.w3.org/2000/svg">
<path d="M9.23038 16.4949C10.9664 11.9579 15.2472 8.6794 20.3281 8.4125L23.5177 4.19424L20.3501 0.0057373C11.5344 0.27365 4.08626 5.97423 1.23901 13.8736L6.20317 12.1555L9.23038 16.4949Z" fill="#2CB1B5"/>
<path d="M27.8736 31.5519C25.8967 32.8417 23.5369 33.594 20.9998 33.594C18.4733 33.594 16.1223 32.8478 14.1498 31.5674L9.08789 33.1059L9.18836 38.359C12.5538 40.6524 16.6202 41.994 20.9998 41.994C25.3744 41.994 29.436 40.6558 32.7995 38.3671L27.7731 36.8391L27.8736 31.5519Z" fill="#2CB1B5"/>
<path d="M21.6458 8.41047C26.727 8.66688 31.0112 11.9349 32.7574 16.4644L37.7597 18.1957L40.766 13.8875C37.9245 5.98607 30.4804 0.280753 21.6671 0.0057373L24.834 4.19424L21.6458 8.41047Z" fill="#2CB1B5"/>
<path d="M41.172 15.1405L38.1665 19.4481L33.1671 17.7175C33.4482 18.7627 33.6001 19.8608 33.6001 20.9947C33.6001 24.9437 31.7826 28.4668 28.939 30.7768L28.8379 36.0657L33.8636 37.5934C38.8136 33.752 42.0001 27.7456 42.0001 20.995C42.0001 18.963 41.7105 16.9986 41.172 15.1405Z" fill="#2CB1B5"/>
<path d="M13.0834 30.7948C10.228 28.4848 8.4 24.9539 8.4 20.9951C8.4 19.872 8.54884 18.7838 8.82453 17.7476L5.79631 13.4076L0.832152 15.126C0.291253 16.9889 0 18.9576 0 20.9954C0 27.7402 3.18044 33.7422 8.12397 37.584L8.0235 32.3333L13.0834 30.7948Z" fill="#2CB1B5"/>
</svg>
