<svg width="20" height="21" viewBox="0 0 20 21" fill="none" xmlns="http://www.w3.org/2000/svg">
<path d="M6.66758 10.1392C6.66758 8.29826 8.15947 6.80556 10.0004 6.80556C11.8413 6.80556 13.334 8.29826 13.334 10.1392C13.334 11.9801 11.8413 13.4728 10.0004 13.4728C8.15947 13.4728 6.66758 11.9801 6.66758 10.1392ZM4.86548 10.1392C4.86548 12.9752 7.16435 15.2741 10.0004 15.2741C12.8364 15.2741 15.1353 12.9752 15.1353 10.1392C15.1353 7.30313 12.8364 5.00426 10.0004 5.00426C7.16435 5.00426 4.86548 7.30313 4.86548 10.1392ZM14.1385 4.80071C14.1385 5.46307 14.6757 6.00103 15.3389 6.00103C16.0012 6.00103 16.5392 5.46307 16.5392 4.80071C16.5392 4.13835 16.002 3.6012 15.3389 3.6012C14.6757 3.6012 14.1385 4.13835 14.1385 4.80071ZM5.95998 18.2789C4.98502 18.2345 4.45514 18.0722 4.10296 17.9348C3.63607 17.7531 3.30328 17.5366 2.95271 17.1869C2.60296 16.8371 2.38567 16.5043 2.20473 16.0374C2.06741 15.6852 1.90506 15.1554 1.86063 14.1804C1.81216 13.1263 1.80247 12.8096 1.80247 10.1392C1.80247 7.46872 1.81297 7.15289 1.86063 6.09796C1.90506 5.123 2.06822 4.59393 2.20473 4.24094C2.38648 3.77405 2.60296 3.44126 2.95271 3.09069C3.30247 2.74094 3.63527 2.52365 4.10296 2.34271C4.45514 2.2054 4.98502 2.04304 5.95998 1.99861C7.0141 1.95015 7.33074 1.94045 10.0004 1.94045C12.6708 1.94045 12.9867 1.95095 14.0416 1.99861C15.0166 2.04304 15.5456 2.2062 15.8986 2.34271C16.3655 2.52365 16.6983 2.74094 17.0489 3.09069C17.3986 3.44045 17.6151 3.77405 17.7968 4.24094C17.9342 4.59312 18.0965 5.123 18.141 6.09796C18.1894 7.15289 18.1991 7.46872 18.1991 10.1392C18.1991 12.8088 18.1894 13.1255 18.141 14.1804C18.0965 15.1554 17.9334 15.6852 17.7968 16.0374C17.6151 16.5043 17.3986 16.8371 17.0489 17.1869C16.6991 17.5366 16.3655 17.7531 15.8986 17.9348C15.5464 18.0722 15.0166 18.2345 14.0416 18.2789C12.9875 18.3274 12.6708 18.3371 10.0004 18.3371C7.33074 18.3371 7.0141 18.3274 5.95998 18.2789ZM5.87759 0.19974C4.81297 0.24821 4.08599 0.41703 3.45029 0.6642C2.79278 0.91945 2.23543 1.26194 1.67888 1.81767C1.12315 2.37341 0.780656 2.93076 0.525406 3.58908C0.278236 4.22478 0.109416 4.95176 0.0609462 6.01638C0.0116762 7.08262 0.000366211 7.42349 0.000366211 10.1392C0.000366211 12.8549 0.0116762 13.1957 0.0609462 14.262C0.109416 15.3266 0.278236 16.0536 0.525406 16.6893C0.780656 17.3468 1.12234 17.905 1.67888 18.4607C2.23462 19.0164 2.79197 19.3581 3.45029 19.6142C4.0868 19.8613 4.81297 20.0302 5.87759 20.0786C6.94464 20.1271 7.2847 20.1392 10.0004 20.1392C12.7169 20.1392 13.0569 20.1279 14.1232 20.0786C15.1878 20.0302 15.9148 19.8613 16.5505 19.6142C17.208 19.3581 17.7653 19.0164 18.3219 18.4607C18.8776 17.905 19.2193 17.3468 19.4754 16.6893C19.7225 16.0536 19.8922 15.3266 19.9398 14.262C19.9883 13.1949 19.9996 12.8549 19.9996 10.1392C19.9996 7.42349 19.9883 7.08262 19.9398 6.01638C19.8914 4.95176 19.7225 4.22478 19.4754 3.58908C19.2193 2.93157 18.8776 2.37422 18.3219 1.81767C17.7662 1.26194 17.208 0.91945 16.5513 0.6642C15.9148 0.41703 15.1878 0.2474 14.124 0.19974C13.0578 0.15128 12.7169 0.13916 10.0012 0.13916C7.2847 0.13916 6.94464 0.15047 5.87759 0.19974Z" fill="#1B1B1B"/>
</svg>
