<svg width="20" height="21" viewBox="0 0 20 21" fill="none" xmlns="http://www.w3.org/2000/svg">
<path d="M17.0001 0.13916H2.99988C0.999878 0.13916 -0.00012207 1.13916 -0.00012207 3.13916L0.000468016 17.1391C0.000468016 19.1391 1.00009 20.1391 3.00009 20.1391H17.0001C19.0001 20.1391 20.0001 19.1391 20.0001 17.1391V3.13916C20.0001 1.13916 19.0001 0.13916 17.0001 0.13916ZM6.66675 15.9725H4.16675V6.80583H6.66675V15.9725ZM5.41675 5.74916C4.61175 5.74916 3.95842 5.09083 3.95842 4.27916C3.95842 3.46749 4.61175 2.80916 5.41675 2.80916C6.22175 2.80916 6.87509 3.46749 6.87509 4.27916C6.87509 5.09083 6.22259 5.74916 5.41675 5.74916ZM16.6668 15.9725H14.1668V11.3025C14.1668 8.49584 10.8334 8.70834 10.8334 11.3025V15.9725H8.33338V6.80583H10.8334V8.27664C11.9968 6.12166 16.6668 5.9625 16.6668 10.34V15.9725Z" fill="#1B1B1B"/>
</svg>
