<svg width="22" height="16" viewBox="0 0 22 16" fill="none" xmlns="http://www.w3.org/2000/svg">
<path d="M22.0018 5.85647C22.0512 4.42513 21.7382 3.00449 21.0918 1.72647C20.6532 1.20207 20.0445 0.848178 19.3718 0.726468C16.5893 0.473998 13.7953 0.370518 11.0018 0.416468C8.21839 0.368428 5.43445 0.468568 2.66174 0.716468C2.11356 0.816188 1.60626 1.07332 1.20174 1.45647C0.301736 2.28647 0.201736 3.70647 0.101736 4.90647C-0.0433521 7.06399 -0.0433521 9.22889 0.101736 11.3865C0.130666 12.0619 0.231226 12.7323 0.401736 13.3865C0.522316 13.8915 0.766256 14.3588 1.11174 14.7465C1.51901 15.1499 2.03812 15.4217 2.60174 15.5265C4.75766 15.7926 6.92996 15.9029 9.10179 15.8565C12.6018 15.9065 15.6717 15.8565 19.3017 15.5765C19.8792 15.4781 20.4129 15.206 20.8318 14.7965C21.1117 14.5164 21.3208 14.1736 21.4418 13.7965C21.7994 12.6991 21.975 11.5506 21.9617 10.3965C22.0018 9.83649 22.0018 6.45649 22.0018 5.85647ZM8.74174 10.9965V4.80647L14.6617 7.91649C13.0018 8.83649 10.8117 9.87649 8.74174 10.9965Z" fill="#1B1B1B"/>
</svg>
