<svg width="18" height="16" viewBox="0 0 18 16" fill="none" xmlns="http://www.w3.org/2000/svg">
<path d="M1.82698 2.95566L2.49524 3.29615L1.82698 2.95566ZM2.2682 14.5494L2.79853 15.0798L2.79853 15.0798L2.2682 14.5494ZM14.862 11.9906L14.5215 11.3224H14.5215L14.862 11.9906ZM16.173 10.6796L15.5048 10.3391V10.3391L16.173 10.6796ZM16.173 2.95566L15.5048 3.29615V3.29615L16.173 2.95566ZM14.862 1.64461L15.2025 0.976353V0.976353L14.862 1.64461ZM3.13803 1.64461L3.47852 2.31286L3.13803 1.64461ZM4.20711 12.6105L4.73744 13.1409L4.20711 12.6105ZM2.25 6.11763C2.25 5.26517 2.25058 4.67094 2.28838 4.20831C2.32546 3.75443 2.3946 3.49366 2.49524 3.29615L1.15873 2.61516C0.932385 3.05938 0.838025 3.53952 0.793363 4.08616C0.749417 4.62404 0.75 5.28992 0.75 6.11763H2.25ZM2.25 7.31763V6.11763H0.75V7.31763H2.25ZM0.75 7.31763V12.3176H2.25V7.31763H0.75ZM0.75 12.3176V14.2312H2.25V12.3176H0.75ZM0.75 14.2312C0.75 15.3003 2.04257 15.8357 2.79853 15.0798L1.73787 14.0191C1.92686 13.8301 2.25 13.964 2.25 14.2312H0.75ZM2.79853 15.0798L4.73744 13.1409L3.67678 12.0802L1.73787 14.0191L2.79853 15.0798ZM11.7 11.5676H4.91421V13.0676H11.7V11.5676ZM14.5215 11.3224C14.324 11.423 14.0632 11.4922 13.6093 11.5292C13.1467 11.567 12.5525 11.5676 11.7 11.5676V13.0676C12.5277 13.0676 13.1936 13.0682 13.7315 13.0243C14.2781 12.9796 14.7582 12.8852 15.2025 12.6589L14.5215 11.3224ZM15.5048 10.3391C15.2891 10.7625 14.9448 11.1067 14.5215 11.3224L15.2025 12.6589C15.9081 12.2994 16.4817 11.7257 16.8413 11.0201L15.5048 10.3391ZM15.75 7.51763C15.75 8.37008 15.7494 8.96432 15.7116 9.42695C15.6745 9.88082 15.6054 10.1416 15.5048 10.3391L16.8413 11.0201C17.0676 10.5759 17.162 10.0957 17.2066 9.5491C17.2506 9.01121 17.25 8.34533 17.25 7.51763H15.75ZM15.75 6.11763V7.51763H17.25V6.11763H15.75ZM15.5048 3.29615C15.6054 3.49367 15.6745 3.75443 15.7116 4.20831C15.7494 4.67094 15.75 5.26517 15.75 6.11763H17.25C17.25 5.28992 17.2506 4.62404 17.2066 4.08616C17.162 3.53952 17.0676 3.05938 16.8413 2.61516L15.5048 3.29615ZM14.5215 2.31286C14.9448 2.52858 15.2891 2.87278 15.5048 3.29615L16.8413 2.61516C16.4817 1.90955 15.9081 1.33588 15.2025 0.976353L14.5215 2.31286ZM11.7 2.06763C12.5525 2.06763 13.1467 2.06821 13.6093 2.10601C14.0632 2.14309 14.324 2.21222 14.5215 2.31286L15.2025 0.976353C14.7582 0.750012 14.2781 0.655652 13.7315 0.61099C13.1936 0.567044 12.5277 0.567627 11.7 0.567627V2.06763ZM6.3 2.06763H11.7V0.567627H6.3V2.06763ZM3.47852 2.31286C3.67604 2.21222 3.9368 2.14309 4.39068 2.10601C4.85331 2.06821 5.44755 2.06763 6.3 2.06763V0.567627C5.4723 0.567627 4.80641 0.567044 4.26853 0.61099C3.72189 0.655652 3.24175 0.750012 2.79754 0.976353L3.47852 2.31286ZM2.49524 3.29615C2.71095 2.87278 3.05516 2.52858 3.47852 2.31286L2.79754 0.976352C2.09193 1.33588 1.51825 1.90955 1.15873 2.61516L2.49524 3.29615ZM4.73744 13.1409C4.78432 13.094 4.84791 13.0676 4.91421 13.0676V11.5676C4.45008 11.5676 4.00497 11.752 3.67678 12.0802L4.73744 13.1409Z" fill="#1B1B1B"/>
<path d="M5.5 5.31763L12.5 5.31763" stroke="#1B1B1B" stroke-width="1.5" stroke-linecap="round" stroke-linejoin="round"/>
<path d="M5.5 8.31763L10.5 8.31763" stroke="#1B1B1B" stroke-width="1.5" stroke-linecap="round" stroke-linejoin="round"/>
</svg>
