<svg width="18" height="15" viewBox="0 0 18 15" fill="none" xmlns="http://www.w3.org/2000/svg">
<path d="M1 4.87294C1 2.90926 2.59188 1.31738 4.55556 1.31738H13.4444C15.4081 1.31738 17 2.90926 17 4.87294C17 5.30757 16.7507 5.70369 16.3589 5.89177L15.969 6.07892C14.5944 6.73874 14.5944 8.69602 15.969 9.35585L16.3589 9.543C16.7507 9.73108 17 10.1272 17 10.5618C17 12.5255 15.4081 14.1174 13.4444 14.1174H4.55555C2.59188 14.1174 1 12.5255 1 10.5618C1 10.1272 1.24925 9.73108 1.64108 9.543L2.03098 9.35585C3.40561 8.69602 3.40561 6.73874 2.03098 6.07892L1.64108 5.89177C1.24925 5.70369 1 5.30757 1 4.87294Z" stroke="#1B1B1B" stroke-width="1.5"/>
<path d="M8.21401 5.90728C8.46141 5.12075 9.53859 5.12075 9.78599 5.90728C9.89663 6.25902 10.2139 6.49717 10.572 6.49717C11.3726 6.49717 11.7054 7.55543 11.0577 8.04153C10.7681 8.25892 10.6469 8.64426 10.7575 8.996C11.0049 9.78253 10.1335 10.4366 9.48577 9.95047C9.19611 9.73308 8.80389 9.73308 8.51423 9.95047C7.86654 10.4366 6.99508 9.78253 7.24248 8.996C7.35311 8.64426 7.23191 8.25892 6.94225 8.04153C6.29456 7.55543 6.62743 6.49717 7.42802 6.49717C7.78606 6.49717 8.10337 6.25902 8.21401 5.90728Z" stroke="#1B1B1B" stroke-width="1.5"/>
</svg>
