<svg width="14" height="15" viewBox="0 0 14 15" fill="none" xmlns="http://www.w3.org/2000/svg">
<path d="M12.8333 2.65096H9.91667V1.48429C9.91667 0.842627 9.39167 0.317627 8.75 0.317627H5.25C4.60833 0.317627 4.08333 0.842627 4.08333 1.48429V2.65096H1.16667C0.525 2.65096 0 3.17596 0 3.81763V13.151C0 13.7926 0.525 14.3176 1.16667 14.3176H12.8333C13.475 14.3176 14 13.7926 14 13.151V3.81763C14 3.17596 13.475 2.65096 12.8333 2.65096ZM5.25 1.48429H8.75V2.65096H5.25V1.48429ZM7.58333 3.81763V7.31763H6.41667V3.81763H7.58333ZM12.8333 13.151H1.16667V11.401H12.8333V13.151ZM12.8333 10.2343H1.16667V3.81763H5.25V7.31763C5.25 7.95929 5.775 8.48429 6.41667 8.48429H7.58333C8.225 8.48429 8.75 7.95929 8.75 7.31763V3.81763H12.8333V10.2343Z" fill="#1B1B1B"/>
</svg>
