<svg width="38" height="38" viewBox="0 0 38 38" fill="none" xmlns="http://www.w3.org/2000/svg">
<path d="M2.17619 18.0967C2.24392 18.707 2.45194 19.2936 2.7842 19.8113C3.11645 20.329 3.56405 20.764 4.09243 21.0825V32.4615C4.09243 33.5326 4.52077 34.5598 5.28321 35.3172C6.04565 36.0745 7.07974 36.5 8.158 36.5H29.841C30.9193 36.5 31.9534 36.0745 32.7158 35.3172C33.4782 34.5598 33.9066 33.5326 33.9066 32.4615V21.0825C34.4346 20.765 34.8819 20.331 35.214 19.8142C35.546 19.2973 35.7539 18.7115 35.8215 18.1021L36.5953 11.3713C36.6565 10.81 36.5981 10.2421 36.4236 9.70469C36.2492 9.16729 35.9628 8.67241 35.5829 8.25231C35.1943 7.82168 34.7186 7.4773 34.1869 7.24163C33.6552 7.00597 33.0794 6.88432 32.4972 6.88462H27.1306V5.53846C27.1306 4.4674 26.7023 3.4402 25.9399 2.68284C25.1774 1.92548 24.1433 1.5 23.0651 1.5H14.9339C13.8557 1.5 12.8216 1.92548 12.0591 2.68284C11.2967 3.4402 10.8684 4.4674 10.8684 5.53846V6.88462H5.50183C4.9199 6.88381 4.34433 7.00483 3.81265 7.23979C3.28096 7.47475 2.80509 7.81838 2.41606 8.24827C2.0358 8.66886 1.7492 9.16445 1.57499 9.70262C1.40078 10.2408 1.34288 10.8094 1.40509 11.3713L2.17619 18.0967ZM31.1962 32.4615C31.1962 32.8186 31.0534 33.161 30.7993 33.4134C30.5451 33.6659 30.2004 33.8077 29.841 33.8077H8.158C7.79858 33.8077 7.45388 33.6659 7.19973 33.4134C6.94559 33.161 6.80281 32.8186 6.80281 32.4615V21.6923H14.9339C14.9339 22.7634 15.3623 23.7906 16.1247 24.5479C16.8872 25.3053 17.9212 25.7308 18.9995 25.7308C20.0778 25.7308 21.1119 25.3053 21.8743 24.5479C22.6367 23.7906 23.0651 22.7634 23.0651 21.6923H31.1962V32.4615ZM20.3547 21.6923C20.3547 22.0493 20.2119 22.3917 19.9578 22.6442C19.7036 22.8966 19.3589 23.0385 18.9995 23.0385C18.6401 23.0385 18.2954 22.8966 18.0412 22.6442C17.7871 22.3917 17.6443 22.0493 17.6443 21.6923V19C17.6443 18.643 17.7871 18.3006 18.0412 18.0481C18.2954 17.7957 18.6401 17.6538 18.9995 17.6538C19.3589 17.6538 19.7036 17.7957 19.9578 18.0481C20.2119 18.3006 20.3547 18.643 20.3547 19V21.6923ZM13.5787 5.53846C13.5787 5.18144 13.7215 4.83904 13.9757 4.58659C14.2298 4.33413 14.5745 4.19231 14.9339 4.19231H23.0651C23.4245 4.19231 23.7692 4.33413 24.0233 4.58659C24.2775 4.83904 24.4203 5.18144 24.4203 5.53846V6.88462H13.5787V5.53846ZM4.43394 10.0454C4.56808 9.89626 4.73275 9.77732 4.91692 9.69653C5.10109 9.61574 5.30051 9.57496 5.50183 9.57692H32.4972C32.6985 9.57496 32.8979 9.61574 33.0821 9.69653C33.2663 9.77732 33.4309 9.89626 33.5651 10.0454C33.6908 10.1823 33.7859 10.3442 33.8441 10.5203C33.9023 10.6964 33.9222 10.8828 33.9025 11.0671L33.1287 17.8046C33.0804 18.1391 32.9114 18.4448 32.6531 18.6647C32.3948 18.8846 32.0649 19.0037 31.7247 19H23.0651C23.0651 17.9289 22.6367 16.9017 21.8743 16.1444C21.1119 15.387 20.0778 14.9615 18.9995 14.9615C17.9212 14.9615 16.8872 15.387 16.1247 16.1444C15.3623 16.9017 14.9339 17.9289 14.9339 19H6.27428C5.93296 19.0036 5.60201 18.8835 5.34336 18.6622C5.0847 18.441 4.91605 18.1337 4.86895 17.7979L4.09785 11.0671C4.07802 10.8829 4.09771 10.6966 4.15565 10.5205C4.21358 10.3444 4.30842 10.1824 4.43394 10.0454Z" fill="#2CB1B5" stroke="#EDFEFF" stroke-width="1.5"/>
</svg>
